<svg width="114" height="114" viewBox="0 0 114 114" fill="none" xmlns="http://www.w3.org/2000/svg">
<path fill-rule="evenodd" clip-rule="evenodd" d="M35.4588 5.0635C41.0305 4.807 42.807 4.75 57 4.75C71.193 4.75 72.9695 4.81175 78.5365 5.0635C84.1035 5.31525 87.9035 6.2035 91.2285 7.49075C94.7102 8.8065 97.869 10.8632 100.481 13.5232C103.141 16.131 105.194 19.285 106.505 22.7715C107.797 26.0965 108.68 29.8965 108.937 35.454C109.193 41.0353 109.25 42.8117 109.25 57C109.25 71.193 109.188 72.9695 108.937 78.5413C108.685 84.0987 107.797 87.8988 106.505 91.2237C105.193 94.7107 103.138 97.8699 100.481 100.481C97.869 103.141 94.7102 105.194 91.2285 106.505C87.9035 107.797 84.1035 108.68 78.546 108.937C72.9695 109.193 71.193 109.25 57 109.25C42.807 109.25 41.0305 109.188 35.4588 108.937C29.9013 108.685 26.1012 107.797 22.7763 106.505C19.2894 105.193 16.1301 103.138 13.5185 100.481C10.8603 97.8722 8.80325 94.7145 7.49075 91.2285C6.2035 87.9035 5.32 84.1035 5.0635 78.546C4.807 72.9647 4.75 71.1882 4.75 57C4.75 42.807 4.81175 41.0305 5.0635 35.4635C5.31525 29.8965 6.2035 26.0965 7.49075 22.7715C8.80518 19.2854 10.8638 16.1277 13.5232 13.5185C16.1312 10.8609 19.2872 8.80386 22.7715 7.49075C26.0965 6.2035 29.8965 5.32 35.454 5.0635H35.4588ZM78.1137 14.4685C72.6038 14.2168 70.9508 14.1645 57 14.1645C43.0493 14.1645 41.3962 14.2168 35.8862 14.4685C30.7895 14.7013 28.025 15.5515 26.182 16.2688C23.7453 17.2188 22.002 18.3445 20.1733 20.1733C18.4397 21.8597 17.1056 23.9128 16.2688 26.182C15.5515 28.025 14.7013 30.7895 14.4685 35.8862C14.2168 41.3962 14.1645 43.0493 14.1645 57C14.1645 70.9508 14.2168 72.6038 14.4685 78.1137C14.7013 83.2105 15.5515 85.975 16.2688 87.818C17.1047 90.0838 18.4395 92.1405 20.1733 93.8268C21.8595 95.5605 23.9163 96.8953 26.182 97.7313C28.025 98.4485 30.7895 99.2988 35.8862 99.5315C41.3962 99.7832 43.0445 99.8355 57 99.8355C70.9555 99.8355 72.6038 99.7832 78.1137 99.5315C83.2105 99.2988 85.975 98.4485 87.818 97.7313C90.2548 96.7812 91.998 95.6555 93.8268 93.8268C95.5605 92.1405 96.8953 90.0838 97.7313 87.818C98.4485 85.975 99.2988 83.2105 99.5315 78.1137C99.7832 72.6038 99.8355 70.9508 99.8355 57C99.8355 43.0493 99.7832 41.3962 99.5315 35.8862C99.2988 30.7895 98.4485 28.025 97.7313 26.182C96.7812 23.7453 95.6555 22.002 93.8268 20.1733C92.1402 18.4398 90.0871 17.1058 87.818 16.2688C85.975 15.5515 83.2105 14.7013 78.1137 14.4685ZM50.3263 73.1072C54.0534 74.6587 58.2035 74.8681 62.0679 73.6997C65.9323 72.5312 69.2711 70.0574 71.5141 66.7007C73.7572 63.344 74.7653 59.3126 74.3662 55.2952C73.9672 51.2779 72.1858 47.5236 69.3262 44.6737C67.5034 42.852 65.2993 41.4571 62.8726 40.5894C60.4459 39.7218 57.857 39.403 55.2924 39.6559C52.7277 39.9089 50.251 40.7273 48.0406 42.0524C45.8302 43.3774 43.941 45.176 42.5092 47.3188C41.0773 49.4616 40.1384 51.8951 39.7599 54.4443C39.3815 56.9935 39.573 59.5949 40.3206 62.0612C41.0682 64.5275 42.3533 66.7974 44.0834 68.7074C45.8136 70.6175 47.9457 72.1201 50.3263 73.1072ZM38.0095 38.0095C40.5034 35.5156 43.464 33.5374 46.7224 32.1877C49.9808 30.838 53.4731 30.1434 57 30.1434C60.5269 30.1434 64.0192 30.838 67.2776 32.1877C70.536 33.5374 73.4966 35.5156 75.9905 38.0095C78.4844 40.5034 80.4626 43.464 81.8123 46.7224C83.162 49.9808 83.8566 53.4731 83.8566 57C83.8566 60.5269 83.162 64.0192 81.8123 67.2776C80.4626 70.536 78.4844 73.4966 75.9905 75.9905C70.9539 81.0271 64.1228 83.8566 57 83.8566C49.8772 83.8566 43.0461 81.0271 38.0095 75.9905C32.9729 70.9539 30.1434 64.1228 30.1434 57C30.1434 49.8772 32.9729 43.0461 38.0095 38.0095ZM89.813 34.143C90.431 33.56 90.9257 32.859 91.2679 32.0814C91.6101 31.3038 91.7928 30.4654 91.8052 29.6159C91.8176 28.7664 91.6594 27.9231 91.34 27.1358C91.0207 26.3486 90.5466 25.6334 89.9458 25.0327C89.3451 24.4319 88.6299 23.9578 87.8427 23.6385C87.0554 23.3191 86.2121 23.1609 85.3626 23.1733C84.5131 23.1857 83.6747 23.3684 82.8971 23.7106C82.1195 24.0528 81.4185 24.5475 80.8355 25.1655C79.7017 26.3674 79.081 27.9638 79.1051 29.6159C79.1292 31.268 79.7962 32.8457 80.9645 34.014C82.1328 35.1823 83.7105 35.8493 85.3626 35.8734C87.0147 35.8975 88.6111 35.2768 89.813 34.143Z" fill="black"/>
</svg>
