<svg width="109" height="110" viewBox="0 0 109 110" fill="none" xmlns="http://www.w3.org/2000/svg">
<path d="M54.4773 0.0775146C24.4387 0.0775146 0 24.7102 0 54.9817C0 85.2806 24.4387 109.922 54.4773 109.922C84.5431 109.922 109 85.276 109 54.9817C109 24.7102 84.5431 0.0775146 54.4773 0.0775146ZM26.8322 75.1565C33.0698 73.2309 39.556 72.2469 46.0797 72.2365C57.0433 72.2365 67.8661 75.0375 77.3809 80.3376C77.9486 80.6488 78.4618 81.674 78.698 82.9555C78.9251 84.2371 78.8342 85.5506 78.4618 86.2326C78.2863 86.557 78.0487 86.843 77.7627 87.0741C77.4766 87.3053 77.1479 87.4769 76.7956 87.5791C76.4433 87.6813 76.0744 87.712 75.7102 87.6694C75.346 87.6268 74.9938 87.5118 74.6741 87.331C67.6854 83.4674 59.9978 81.0577 52.0675 80.2447C44.1372 79.4318 36.1256 80.2322 28.508 82.5985C28.1583 82.7125 27.7896 82.7552 27.4234 82.7241C27.0572 82.6931 26.7007 82.5889 26.3748 82.4177C26.049 82.2464 25.7601 82.0116 25.5252 81.7267C25.2903 81.4419 25.1139 81.1128 25.0064 80.7586C24.5205 79.1567 25.5242 75.5868 26.8322 75.1565ZM24.4569 54.9268C31.5035 52.9975 38.7732 52.0202 46.0752 52.0205C59.2188 52.0205 72.267 55.2243 83.8165 61.2932C84.6294 61.7051 85.2244 62.41 85.4969 63.2704C85.6346 63.7049 85.6847 64.1628 85.6441 64.6172C85.6036 65.0715 85.4732 65.5131 85.2607 65.9158C84.2298 67.948 83.0217 69.3165 82.2632 69.3165C81.7099 69.314 81.1651 69.1791 80.6736 68.9228C69.9971 63.3056 58.1237 60.3932 46.0797 60.4373C39.3805 60.4238 32.7103 61.3244 26.2508 63.1148C25.8199 63.2335 25.37 63.2655 24.9268 63.209C24.4836 63.1525 24.0558 63.0086 23.6678 62.7854C23.2798 62.5623 22.9393 62.2644 22.6655 61.9086C22.3918 61.5528 22.1903 61.1462 22.0725 60.7119C21.5638 58.7805 22.731 55.4028 24.4569 54.9268ZM23.8438 41.7179C23.3326 41.8501 22.8004 41.879 22.2781 41.8029C21.7558 41.7267 21.2536 41.5471 20.8005 41.2743C20.3474 41.0016 19.9525 40.6411 19.6384 40.2137C19.3243 39.7863 19.0973 39.3004 18.9705 38.7841C18.4119 36.5048 19.8244 33.8594 21.8772 33.3377C29.7956 31.3722 37.9201 30.3749 46.0752 30.3673C61.744 30.3673 76.7587 33.9189 90.6925 40.9261C91.6499 41.4058 92.379 42.249 92.7197 43.2704C93.0604 44.2917 92.9846 45.4075 92.5092 46.3726C91.8597 47.6907 90.4518 49.1096 88.8986 49.1096C88.2895 49.1073 87.6882 48.9714 87.1364 48.7114C74.3951 42.27 60.3298 38.9369 46.0752 38.9809C38.6496 38.9809 31.1695 39.9009 23.8438 41.7179Z" fill="black"/>
</svg>
